<?xml version="1.0" encoding="UTF-8" standalone="no"?>
<!DOCTYPE svg PUBLIC "-//W3C//DTD SVG 1.1//EN"
 "http://www.w3.org/Graphics/SVG/1.1/DTD/svg11.dtd">
<!-- Generated by graphviz version 14.1.3 (0)
 -->
<!-- Title: AFF Pages: 1 -->
<svg width="7187pt" height="1843pt"
 viewBox="0.00 0.00 7187.00 1843.00" xmlns="http://www.w3.org/2000/svg" xmlns:xlink="http://www.w3.org/1999/xlink">
<g id="graph0" class="graph" transform="scale(2.77778 2.77778) rotate(0) translate(25.2 638.2)">
<title>AFF</title>
<polygon fill="white" stroke="none" points="-25.2,25.2 -25.2,-638.2 2562.1,-638.2 2562.1,25.2 -25.2,25.2"/>
<text xml:space="preserve" text-anchor="start" x="819.95" y="-97.25" font-family="DejaVu Sans" font-size="20.00">The two conditions of an episode see mirrored evidence, so the affect pick, and AFF&#39;s gate,</text>
<text xml:space="preserve" text-anchor="start" x="903.95" y="-59.25" font-family="DejaVu Sans" font-size="20.00">opens mostly on one side (about 81% of first sides, 30% of second sides).</text>
<polygon fill="#f1f3f4" stroke="none" points="730.58,-14 730.58,-42 1028.58,-42 1028.58,-14 730.58,-14"/>
<text xml:space="preserve" text-anchor="start" x="732.58" y="-21.25" font-family="DejaVu Sans" font-size="20.00" fill="#6b7279">Grey: same as earlier pipeline</text>
<polygon fill="#f1edf8" stroke="none" points="1038.58,-14 1038.58,-42 1448.33,-42 1448.33,-14 1038.58,-14"/>
<text xml:space="preserve" text-anchor="start" x="1040.58" y="-21.25" font-family="DejaVu Sans" font-size="20.00" fill="#8e7cc3">Purple: unchanged from gated reader R1</text>
<polygon fill="#fff2e3" stroke="none" points="1458.33,-14 1458.33,-42 1634.08,-42 1634.08,-14 1458.33,-14"/>
<text xml:space="preserve" text-anchor="start" x="1460.33" y="-21.25" font-family="DejaVu Sans" font-size="20.00" fill="#d9822b">Orange: replaced</text>
<polygon fill="#e7f6f2" stroke="none" points="1644.08,-14 1644.08,-42 1806.33,-42 1806.33,-14 1644.08,-14"/>
<text xml:space="preserve" text-anchor="start" x="1646.08" y="-21.25" font-family="DejaVu Sans" font-size="20.00" fill="#1b8a7a">Teal: new in AFF</text>
<g id="clust1" class="cluster">
<title>cluster_pipeline</title>
<polygon fill="white" stroke="white" points="8,-140 8,-605 2528.9,-605 2528.9,-140 8,-140"/>
<text xml:space="preserve" text-anchor="middle" x="1268.45" y="-575.35" font-family="DejaVu Sans" font-size="27.00">How one&#45;sided affect steering scores a candidate</text>
</g>
<!-- query -->
<g id="node1" class="node">
<title>query</title>
<path fill="#f1f3f4" stroke="#9aa0a6" stroke-width="2" d="M221.05,-229.74C221.05,-229.74 40,-229.74 40,-229.74 34,-229.74 28,-223.74 28,-217.74 28,-217.74 28,-172.26 28,-172.26 28,-166.26 34,-160.26 40,-160.26 40,-160.26 221.05,-160.26 221.05,-160.26 227.05,-160.26 233.05,-166.26 233.05,-172.26 233.05,-172.26 233.05,-217.74 233.05,-217.74 233.05,-223.74 227.05,-229.74 221.05,-229.74"/>
<text xml:space="preserve" text-anchor="middle" x="130.53" y="-199.45" font-family="DejaVu Sans" font-size="19.00" fill="#263444">Query</text>
<text xml:space="preserve" text-anchor="middle" x="130.53" y="-176.95" font-family="DejaVu Sans" font-size="19.00" fill="#263444">(image or caption)</text>
</g>
<!-- features -->
<g id="node4" class="node">
<title>features</title>
<path fill="#f1f3f4" stroke="#9aa0a6" stroke-width="2" d="M515.73,-239.74C515.73,-239.74 348.18,-239.74 348.18,-239.74 342.18,-239.74 336.18,-233.74 336.18,-227.74 336.18,-227.74 336.18,-182.26 336.18,-182.26 336.18,-176.26 342.18,-170.26 348.18,-170.26 348.18,-170.26 515.73,-170.26 515.73,-170.26 521.73,-170.26 527.73,-176.26 527.73,-182.26 527.73,-182.26 527.73,-227.74 527.73,-227.74 527.73,-233.74 521.73,-239.74 515.73,-239.74"/>
<text xml:space="preserve" text-anchor="middle" x="431.95" y="-209.45" font-family="DejaVu Sans" font-size="19.00" fill="#263444">Frozen CLIP</text>
<text xml:space="preserve" text-anchor="middle" x="431.95" y="-186.95" font-family="DejaVu Sans" font-size="19.00" fill="#263444">ViT&#45;B/32 features</text>
</g>
<!-- query&#45;&gt;features -->
<g id="edge1" class="edge">
<title>query&#45;&gt;features</title>
<path fill="none" stroke="#9aa0a6" stroke-width="1.7" d="M233.73,-198.41C263.13,-199.4 295.26,-200.47 324.89,-201.46"/>
<polygon fill="#9aa0a6" stroke="#9aa0a6" stroke-width="1.7" points="324.59,-204.25 332.68,-201.72 324.78,-198.65 324.59,-204.25"/>
</g>
<!-- examples -->
<g id="node2" class="node">
<title>examples</title>
<path fill="#f1f3f4" stroke="#9aa0a6" stroke-width="2" d="M218.05,-330.74C218.05,-330.74 43,-330.74 43,-330.74 37,-330.74 31,-324.74 31,-318.74 31,-318.74 31,-273.26 31,-273.26 31,-267.26 37,-261.26 43,-261.26 43,-261.26 218.05,-261.26 218.05,-261.26 224.05,-261.26 230.05,-267.26 230.05,-273.26 230.05,-273.26 230.05,-318.74 230.05,-318.74 230.05,-324.74 224.05,-330.74 218.05,-330.74"/>
<text xml:space="preserve" text-anchor="middle" x="130.53" y="-300.45" font-family="DejaVu Sans" font-size="19.00" fill="#263444">4 support pairs</text>
<text xml:space="preserve" text-anchor="middle" x="130.53" y="-277.95" font-family="DejaVu Sans" font-size="19.00" fill="#263444">+ 4 contrast pairs</text>
</g>
<!-- examples&#45;&gt;features -->
<g id="edge2" class="edge">
<title>examples&#45;&gt;features</title>
<path fill="none" stroke="#9aa0a6" stroke-width="1.7" d="M230.81,-265.82C261.15,-256.6 294.62,-246.43 325.36,-237.09"/>
<polygon fill="#9aa0a6" stroke="#9aa0a6" stroke-width="1.7" points="325.93,-239.84 332.77,-234.84 324.3,-234.48 325.93,-239.84"/>
</g>
<!-- candidates -->
<g id="node3" class="node">
<title>candidates</title>
<path fill="#f1f3f4" stroke="#9aa0a6" stroke-width="2" d="M200.43,-409.49C200.43,-409.49 60.63,-409.49 60.63,-409.49 54.63,-409.49 48.63,-403.49 48.63,-397.49 48.63,-397.49 48.63,-374.51 48.63,-374.51 48.63,-368.51 54.63,-362.51 60.63,-362.51 60.63,-362.51 200.43,-362.51 200.43,-362.51 206.43,-362.51 212.43,-368.51 212.43,-374.51 212.43,-374.51 212.43,-397.49 212.43,-397.49 212.43,-403.49 206.43,-409.49 200.43,-409.49"/>
<text xml:space="preserve" text-anchor="middle" x="130.53" y="-379.2" font-family="DejaVu Sans" font-size="19.00" fill="#263444">13 candidates</text>
</g>
<!-- candidates&#45;&gt;features -->
<g id="edge3" class="edge">
<title>candidates&#45;&gt;features</title>
<path fill="none" stroke="#9aa0a6" stroke-width="1.7" d="M195.25,-361.52C215.64,-353.69 233.05,-347 233.05,-347 233.05,-347 278.05,-255 278.05,-255 278.05,-255 299.04,-248.14 325.47,-239.49"/>
<polygon fill="#9aa0a6" stroke="#9aa0a6" stroke-width="1.7" points="326.24,-242.19 332.97,-237.04 324.5,-236.86 326.24,-242.19"/>
</g>
<!-- heads -->
<g id="node6" class="node">
<title>heads</title>
<path fill="#f1f3f4" stroke="#9aa0a6" stroke-width="2" d="M907.9,-447.99C907.9,-447.99 642.85,-447.99 642.85,-447.99 636.85,-447.99 630.85,-441.99 630.85,-435.99 630.85,-435.99 630.85,-368.01 630.85,-368.01 630.85,-362.01 636.85,-356.01 642.85,-356.01 642.85,-356.01 907.9,-356.01 907.9,-356.01 913.9,-356.01 919.9,-362.01 919.9,-368.01 919.9,-368.01 919.9,-435.99 919.9,-435.99 919.9,-441.99 913.9,-447.99 907.9,-447.99"/>
<text xml:space="preserve" text-anchor="middle" x="775.38" y="-417.7" font-family="DejaVu Sans" font-size="19.00" fill="#263444">Heads: logistic regressions</text>
<text xml:space="preserve" text-anchor="middle" x="775.38" y="-395.2" font-family="DejaVu Sans" font-size="19.00" fill="#263444">place any image or caption</text>
<text xml:space="preserve" text-anchor="middle" x="775.38" y="-372.7" font-family="DejaVu Sans" font-size="19.00" fill="#263444">in each grouping</text>
</g>
<!-- features&#45;&gt;heads -->
<g id="edge5" class="edge">
<title>features&#45;&gt;heads</title>
<path fill="none" stroke="#9aa0a6" stroke-width="1.7" d="M528.48,-236.24C559.39,-246.35 585.85,-255 585.85,-255 585.85,-255 652.06,-306.63 706.01,-348.69"/>
<polygon fill="#9aa0a6" stroke="#9aa0a6" stroke-width="1.7" points="704.15,-350.79 712.18,-353.5 707.59,-346.37 704.15,-350.79"/>
</g>
<!-- base -->
<g id="node12" class="node">
<title>base</title>
<path fill="#f1f3f4" stroke="#9aa0a6" stroke-width="2" d="M1975.05,-296.49C1975.05,-296.49 1752.75,-296.49 1752.75,-296.49 1746.75,-296.49 1740.75,-290.49 1740.75,-284.49 1740.75,-284.49 1740.75,-171.51 1740.75,-171.51 1740.75,-165.51 1746.75,-159.51 1752.75,-159.51 1752.75,-159.51 1975.05,-159.51 1975.05,-159.51 1981.05,-159.51 1987.05,-165.51 1987.05,-171.51 1987.05,-171.51 1987.05,-284.49 1987.05,-284.49 1987.05,-290.49 1981.05,-296.49 1975.05,-296.49"/>
<text xml:space="preserve" text-anchor="middle" x="1863.9" y="-266.2" font-family="DejaVu Sans" font-size="19.00" fill="#263444">Condition&#45;free score B:</text>
<text xml:space="preserve" text-anchor="middle" x="1863.9" y="-243.7" font-family="DejaVu Sans" font-size="19.00" fill="#263444">cosine + factor term</text>
<text xml:space="preserve" text-anchor="middle" x="1863.9" y="-221.2" font-family="DejaVu Sans" font-size="19.00" fill="#263444">+ averaged heads</text>
<text xml:space="preserve" text-anchor="middle" x="1863.9" y="-198.7" font-family="DejaVu Sans" font-size="19.00" fill="#263444">(uses the examples,</text>
<text xml:space="preserve" text-anchor="middle" x="1863.9" y="-176.2" font-family="DejaVu Sans" font-size="19.00" fill="#263444">ignores the aspect)</text>
</g>
<!-- features&#45;&gt;base -->
<g id="edge12" class="edge">
<title>features&#45;&gt;base</title>
<path fill="none" stroke="#9aa0a6" stroke-width="1.7" d="M528.51,-208.36C629.52,-211.91 774.38,-217 774.38,-217 774.38,-217 774.38,-217 1553.73,-217 1553.73,-217 1645.76,-220.27 1729.4,-223.25"/>
<polygon fill="#9aa0a6" stroke="#9aa0a6" stroke-width="1.7" points="1729.15,-226.04 1737.25,-223.53 1729.35,-220.45 1729.15,-226.04"/>
</g>
<!-- groupings -->
<g id="node5" class="node">
<title>groupings</title>
<path fill="#f1f3f4" stroke="#9aa0a6" stroke-width="2" d="M573.85,-544.74C573.85,-544.74 290.05,-544.74 290.05,-544.74 284.05,-544.74 278.05,-538.74 278.05,-532.74 278.05,-532.74 278.05,-283.26 278.05,-283.26 278.05,-277.26 284.05,-271.26 290.05,-271.26 290.05,-271.26 573.85,-271.26 573.85,-271.26 579.85,-271.26 585.85,-277.26 585.85,-283.26 585.85,-283.26 585.85,-532.74 585.85,-532.74 585.85,-538.74 579.85,-544.74 573.85,-544.74"/>
<text xml:space="preserve" text-anchor="middle" x="431.95" y="-516.35" font-family="DejaVu Sans" font-size="17.00" fill="#263444">Three label&#45;free groupings</text>
<text xml:space="preserve" text-anchor="middle" x="431.95" y="-495.35" font-family="DejaVu Sans" font-size="17.00" fill="#263444">of the training rows</text>
<text xml:space="preserve" text-anchor="middle" x="431.95" y="-454.35" font-family="DejaVu Sans" font-size="17.00" fill="#263444">affect: Leiden communities of</text>
<text xml:space="preserve" text-anchor="middle" x="431.95" y="-433.35" font-family="DejaVu Sans" font-size="17.00" fill="#263444">GoEmotions caption probabilities</text>
<text xml:space="preserve" text-anchor="middle" x="431.95" y="-412.35" font-family="DejaVu Sans" font-size="17.00" fill="#263444">(41 groups)</text>
<text xml:space="preserve" text-anchor="middle" x="431.95" y="-371.35" font-family="DejaVu Sans" font-size="17.00" fill="#263444">image: k&#45;means on CLIP</text>
<text xml:space="preserve" text-anchor="middle" x="431.95" y="-350.35" font-family="DejaVu Sans" font-size="17.00" fill="#263444">image features (64)</text>
<text xml:space="preserve" text-anchor="middle" x="431.95" y="-309.35" font-family="DejaVu Sans" font-size="17.00" fill="#263444">caption: k&#45;means on CLIP</text>
<text xml:space="preserve" text-anchor="middle" x="431.95" y="-288.35" font-family="DejaVu Sans" font-size="17.00" fill="#263444">caption features (64)</text>
</g>
<!-- groupings&#45;&gt;heads -->
<g id="edge4" class="edge">
<title>groupings&#45;&gt;heads</title>
<path fill="none" stroke="#9aa0a6" stroke-width="1.7" d="M586.68,-405.3C597.61,-405.11 608.64,-404.91 619.58,-404.72"/>
<polygon fill="#9aa0a6" stroke="#9aa0a6" stroke-width="1.7" points="619.51,-407.52 627.46,-404.58 619.41,-401.92 619.51,-407.52"/>
</g>
<!-- agreement -->
<g id="node7" class="node">
<title>agreement</title>
<path fill="#f1edf8" stroke="#8e7cc3" stroke-width="2" d="M1242.7,-447.99C1242.7,-447.99 976.9,-447.99 976.9,-447.99 970.9,-447.99 964.9,-441.99 964.9,-435.99 964.9,-435.99 964.9,-368.01 964.9,-368.01 964.9,-362.01 970.9,-356.01 976.9,-356.01 976.9,-356.01 1242.7,-356.01 1242.7,-356.01 1248.7,-356.01 1254.7,-362.01 1254.7,-368.01 1254.7,-368.01 1254.7,-435.99 1254.7,-435.99 1254.7,-441.99 1248.7,-447.99 1242.7,-447.99"/>
<text xml:space="preserve" text-anchor="middle" x="1109.8" y="-417.7" font-family="DejaVu Sans" font-size="19.00" fill="#263444">Agreement of support pairs</text>
<text xml:space="preserve" text-anchor="middle" x="1109.8" y="-395.2" font-family="DejaVu Sans" font-size="19.00" fill="#263444">minus contrast pairs,</text>
<text xml:space="preserve" text-anchor="middle" x="1109.8" y="-372.7" font-family="DejaVu Sans" font-size="19.00" fill="#263444">per grouping</text>
</g>
<!-- heads&#45;&gt;agreement -->
<g id="edge6" class="edge">
<title>heads&#45;&gt;agreement</title>
<path fill="none" stroke="#9aa0a6" stroke-width="1.7" d="M920.73,-402C931.62,-402 942.63,-402 953.59,-402"/>
<polygon fill="#9aa0a6" stroke="#9aa0a6" stroke-width="1.7" points="953.49,-404.8 961.49,-402 953.49,-399.2 953.49,-404.8"/>
</g>
<!-- score_t -->
<g id="node9" class="node">
<title>score_t</title>
<path fill="#f1edf8" stroke="#8e7cc3" stroke-width="2" d="M1956.68,-544.74C1956.68,-544.74 1771.13,-544.74 1771.13,-544.74 1765.13,-544.74 1759.13,-538.74 1759.13,-532.74 1759.13,-532.74 1759.13,-487.26 1759.13,-487.26 1759.13,-481.26 1765.13,-475.26 1771.13,-475.26 1771.13,-475.26 1956.68,-475.26 1956.68,-475.26 1962.68,-475.26 1968.68,-481.26 1968.68,-487.26 1968.68,-487.26 1968.68,-532.74 1968.68,-532.74 1968.68,-538.74 1962.68,-544.74 1956.68,-544.74"/>
<text xml:space="preserve" text-anchor="middle" x="1863.9" y="-514.45" font-family="DejaVu Sans" font-size="19.00" fill="#263444">Weighted grouping</text>
<text xml:space="preserve" text-anchor="middle" x="1863.9" y="-491.95" font-family="DejaVu Sans" font-size="19.00" fill="#263444">score T</text>
</g>
<!-- heads&#45;&gt;score_t -->
<g id="edge9" class="edge">
<title>heads:n&#45;&gt;score_t:n</title>
<path fill="none" stroke="#8e7cc3" stroke-width="1.7" d="M775.38,-448.99C775.38,-448.99 1759.13,-544.74 1759.13,-544.74 1759.13,-544.74 1826.97,-545.39 1853.47,-545.64"/>
<polygon fill="#8e7cc3" stroke="#8e7cc3" stroke-width="1.7" points="1853.3,-548.44 1861.33,-545.72 1853.35,-542.84 1853.3,-548.44"/>
<text xml:space="preserve" text-anchor="middle" x="1332.2" y="-512.51" font-family="DejaVu Sans" font-size="14.00">grouping scores</text>
</g>
<!-- heads&#45;&gt;base -->
<g id="edge13" class="edge">
<title>heads&#45;&gt;base</title>
<path fill="none" stroke="#9aa0a6" stroke-width="1.7" d="M918.78,-355.17C945.32,-346.44 964.9,-340 964.9,-340 964.9,-340 1479.61,-275.8 1729.68,-244.62"/>
<polygon fill="#9aa0a6" stroke="#9aa0a6" stroke-width="1.7" points="1729.77,-247.43 1737.37,-243.66 1729.08,-241.87 1729.77,-247.43"/>
</g>
<!-- reader -->
<g id="node8" class="node">
<title>reader</title>
<path fill="#f1edf8" stroke="#8e7cc3" stroke-width="2" d="M1683.75,-470.49C1683.75,-470.49 1421.7,-470.49 1421.7,-470.49 1415.7,-470.49 1409.7,-464.49 1409.7,-458.49 1409.7,-458.49 1409.7,-345.51 1409.7,-345.51 1409.7,-339.51 1415.7,-333.51 1421.7,-333.51 1421.7,-333.51 1683.75,-333.51 1683.75,-333.51 1689.75,-333.51 1695.75,-339.51 1695.75,-345.51 1695.75,-345.51 1695.75,-458.49 1695.75,-458.49 1695.75,-464.49 1689.75,-470.49 1683.75,-470.49"/>
<text xml:space="preserve" text-anchor="middle" x="1552.73" y="-440.2" font-family="DejaVu Sans" font-size="19.00" fill="#263444">Learned reader: trained on</text>
<text xml:space="preserve" text-anchor="middle" x="1552.73" y="-417.7" font-family="DejaVu Sans" font-size="19.00" fill="#263444">practice episodes built</text>
<text xml:space="preserve" text-anchor="middle" x="1552.73" y="-395.2" font-family="DejaVu Sans" font-size="19.00" fill="#263444">from the groupings</text>
<text xml:space="preserve" text-anchor="middle" x="1552.73" y="-372.7" font-family="DejaVu Sans" font-size="19.00" fill="#263444">(no evaluation labels)</text>
<text xml:space="preserve" text-anchor="middle" x="1552.73" y="-350.2" font-family="DejaVu Sans" font-size="19.00" fill="#263444">&#45;&gt; probability per grouping</text>
</g>
<!-- agreement&#45;&gt;reader -->
<g id="edge7" class="edge">
<title>agreement&#45;&gt;reader</title>
<path fill="none" stroke="#8e7cc3" stroke-width="1.7" d="M1255.48,-402C1301.23,-402 1351.94,-402 1398.28,-402"/>
<polygon fill="#8e7cc3" stroke="#8e7cc3" stroke-width="1.7" points="1398.15,-404.8 1406.15,-402 1398.15,-399.2 1398.15,-404.8"/>
</g>
<!-- reader&#45;&gt;score_t -->
<g id="edge8" class="edge">
<title>reader&#45;&gt;score_t</title>
<path fill="none" stroke="#8e7cc3" stroke-width="1.7" d="M1696.55,-451.89C1714.84,-458.28 1733.35,-464.75 1751.05,-470.93"/>
<polygon fill="#8e7cc3" stroke="#8e7cc3" stroke-width="1.7" points="1749.88,-473.49 1758.36,-473.48 1751.73,-468.2 1749.88,-473.49"/>
</g>
<!-- gate_r1 -->
<g id="node10" class="node">
<title>gate_r1</title>
<path fill="#fff2e3" stroke="#d9822b" stroke-width="2" d="M1969.05,-443.24C1969.05,-443.24 1758.75,-443.24 1758.75,-443.24 1752.75,-443.24 1746.75,-437.24 1746.75,-431.24 1746.75,-431.24 1746.75,-340.76 1746.75,-340.76 1746.75,-334.76 1752.75,-328.76 1758.75,-328.76 1758.75,-328.76 1969.05,-328.76 1969.05,-328.76 1975.05,-328.76 1981.05,-334.76 1981.05,-340.76 1981.05,-340.76 1981.05,-431.24 1981.05,-431.24 1981.05,-437.24 1975.05,-443.24 1969.05,-443.24"/>
<text xml:space="preserve" text-anchor="middle" x="1863.9" y="-412.95" font-family="DejaVu Sans" font-size="19.00" fill="#263444">R1&#39;s gate: open if the</text>
<text xml:space="preserve" text-anchor="middle" x="1863.9" y="-390.45" font-family="DejaVu Sans" font-size="19.00" fill="#263444">reader is confident</text>
<text xml:space="preserve" text-anchor="middle" x="1863.9" y="-367.95" font-family="DejaVu Sans" font-size="19.00" fill="#263444">(top minus second</text>
<text xml:space="preserve" text-anchor="middle" x="1863.9" y="-345.45" font-family="DejaVu Sans" font-size="19.00" fill="#263444">probability &gt;= tau)</text>
</g>
<!-- reader&#45;&gt;gate_r1 -->
<g id="edge10" class="edge">
<title>reader&#45;&gt;gate_r1</title>
<path fill="none" stroke="#d9822b" stroke-width="1.7" d="M1696.55,-394.61C1709.66,-393.93 1722.88,-393.25 1735.83,-392.58"/>
<polygon fill="#d9822b" stroke="#d9822b" stroke-width="1.7" points="1735.75,-395.38 1743.59,-392.17 1735.46,-389.79 1735.75,-395.38"/>
</g>
<!-- output -->
<g id="node13" class="node">
<title>output</title>
<path fill="#e7f6f2" stroke="#1b8a7a" stroke-width="2" d="M2496.9,-442.99C2496.9,-442.99 2276.1,-442.99 2276.1,-442.99 2270.1,-442.99 2264.1,-436.99 2264.1,-430.99 2264.1,-430.99 2264.1,-341.01 2264.1,-341.01 2264.1,-335.01 2270.1,-329.01 2276.1,-329.01 2276.1,-329.01 2496.9,-329.01 2496.9,-329.01 2502.9,-329.01 2508.9,-335.01 2508.9,-341.01 2508.9,-341.01 2508.9,-430.99 2508.9,-430.99 2508.9,-436.99 2502.9,-442.99 2496.9,-442.99"/>
<text xml:space="preserve" text-anchor="middle" x="2386.5" y="-412.7" font-family="DejaVu Sans" font-size="19.00" fill="#263444">Score = z(B) + λu·z(B)</text>
<text xml:space="preserve" text-anchor="middle" x="2386.5" y="-390.2" font-family="DejaVu Sans" font-size="19.00" fill="#263444">+ λa·gate·z(T)</text>
<text xml:space="preserve" text-anchor="middle" x="2386.5" y="-345.7" font-family="DejaVu Sans" font-size="19.00" fill="#263444">gate closed &#45;&gt; B alone</text>
</g>
<!-- score_t&#45;&gt;output -->
<g id="edge14" class="edge">
<title>score_t&#45;&gt;output</title>
<path fill="none" stroke="#8e7cc3" stroke-width="1.7" d="M1969.26,-491.73C2073.74,-473.44 2219.1,-448 2219.1,-448 2219.1,-448 2233.39,-442.68 2253.59,-435.15"/>
<polygon fill="#8e7cc3" stroke="#8e7cc3" stroke-width="1.7" points="2254.33,-437.86 2260.84,-432.45 2252.37,-432.62 2254.33,-437.86"/>
</g>
<!-- gate_aff -->
<g id="node11" class="node">
<title>gate_aff</title>
<path fill="#e7f6f2" stroke="#1b8a7a" stroke-width="2" d="M2207.1,-431.99C2207.1,-431.99 2044.05,-431.99 2044.05,-431.99 2038.05,-431.99 2032.05,-425.99 2032.05,-419.99 2032.05,-419.99 2032.05,-352.01 2032.05,-352.01 2032.05,-346.01 2038.05,-340.01 2044.05,-340.01 2044.05,-340.01 2207.1,-340.01 2207.1,-340.01 2213.1,-340.01 2219.1,-346.01 2219.1,-352.01 2219.1,-352.01 2219.1,-419.99 2219.1,-419.99 2219.1,-425.99 2213.1,-431.99 2207.1,-431.99"/>
<text xml:space="preserve" text-anchor="middle" x="2125.58" y="-401.7" font-family="DejaVu Sans" font-size="19.00" fill="#263444">AFF: and only if</text>
<text xml:space="preserve" text-anchor="middle" x="2125.58" y="-379.2" font-family="DejaVu Sans" font-size="19.00" fill="#263444">the top grouping</text>
<text xml:space="preserve" text-anchor="middle" x="2125.58" y="-356.7" font-family="DejaVu Sans" font-size="19.00" fill="#263444">is affect</text>
</g>
<!-- gate_r1&#45;&gt;gate_aff -->
<g id="edge11" class="edge">
<title>gate_r1&#45;&gt;gate_aff</title>
<path fill="none" stroke="#1b8a7a" stroke-width="1.7" d="M1981.82,-386C1994.89,-386 2008.13,-386 2021.01,-386"/>
<polygon fill="#1b8a7a" stroke="#1b8a7a" stroke-width="1.7" points="2020.68,-388.8 2028.68,-386 2020.68,-383.2 2020.68,-388.8"/>
</g>
<!-- gate_aff&#45;&gt;output -->
<g id="edge15" class="edge">
<title>gate_aff&#45;&gt;output</title>
<path fill="none" stroke="#1b8a7a" stroke-width="1.7" d="M2220.05,-386C2230.81,-386 2241.93,-386 2253.08,-386"/>
<polygon fill="#1b8a7a" stroke="#1b8a7a" stroke-width="1.7" points="2252.74,-388.8 2260.74,-386 2252.74,-383.2 2252.74,-388.8"/>
</g>
<!-- base&#45;&gt;output -->
<g id="edge16" class="edge">
<title>base&#45;&gt;output</title>
<path fill="none" stroke="#9aa0a6" stroke-width="1.7" d="M1987.79,-261.31C2090.09,-289.03 2219.1,-324 2219.1,-324 2219.1,-324 2233.39,-329.32 2253.59,-336.85"/>
<polygon fill="#9aa0a6" stroke="#9aa0a6" stroke-width="1.7" points="2252.37,-339.38 2260.84,-339.55 2254.33,-334.14 2252.37,-339.38"/>
</g>
</g>
</svg>
